<svg width="1103" height="823" viewBox="0 0 1103 823" fill="none" xmlns="http://www.w3.org/2000/svg">
<rect x="903.845" y="822.894" width="137.524" height="813" rx="1" transform="rotate(-165.854 903.845 822.894)" fill="#939393"/>
<rect x="593" y="178" width="144" height="645" rx="1" fill="#566848"/>
<rect y="35" width="109" height="788" rx="1" fill="#F6B2BD"/>
<path d="M339.557 349.024C399.365 278.724 492.873 245.002 530.683 234.904C530.286 254.403 526.828 288.754 516.485 327.02C505.554 367.466 486.976 412.112 456.347 448.221C420.336 479.467 390.536 501.184 365.724 511.628C353.327 516.846 342.318 519.187 332.492 518.591C322.717 517.998 313.972 514.491 306.048 507.758C290.328 494.402 285.561 475.173 291.343 448.865C297.146 422.462 313.516 389.355 339.557 349.024Z" fill="#76B278" stroke="#404E35" stroke-width="5"/>
<path d="M282.249 435.134C231.139 358.278 224.474 259.099 225.18 219.97C243.815 225.722 275.885 238.506 309.823 258.988C345.694 280.636 383.498 310.791 409.775 350.18C429.895 393.404 442.565 428.032 445.772 454.762C447.374 468.116 446.592 479.344 443.313 488.626C440.051 497.859 434.271 505.3 425.616 511.064C408.447 522.497 388.649 521.784 364.95 508.98C341.167 496.131 313.848 471.276 282.249 435.134Z" fill="#76B278" stroke="#404E35" stroke-width="5"/>
<path d="M322.868 404.778C318.756 312.809 359.994 224.837 379.08 191.522C403.972 221.896 458.983 306.458 463.208 398.404C458.715 445.797 452.389 481.991 442.31 506.517C432.245 531.008 418.74 543.237 400.063 544.082C381.326 544.929 366.072 534.177 353.365 510.874C340.635 487.528 330.778 452.081 322.868 404.778Z" fill="#76B278" stroke="#404E35" stroke-width="5"/>
<path d="M286.166 484.465C213.712 428.439 169.635 345.511 154.606 311.194C192.44 314.504 287.643 332.759 360.129 388.703C393.935 422.082 418.139 449.495 431.268 471.891C444.441 494.362 445.992 510.891 436.328 523.399C426.626 535.956 410.001 539.206 384.815 532.561C359.691 525.933 326.914 509.638 286.166 484.465Z" fill="#76B278" stroke="#404E35" stroke-width="5"/>
<path d="M355.725 431.569C427.971 375.275 519.24 353.143 556.212 347.094C543.622 382.925 502.326 470.626 430.152 526.972C389.431 551.443 356.871 568.092 331.919 575.256C306.882 582.444 290.486 579.847 280.765 567.382C271.007 554.87 271.982 537.958 284.665 515.207C297.318 492.512 321.233 464.801 355.725 431.569Z" fill="#76B278" stroke="#404E35" stroke-width="5"/>
<path d="M382.712 513.601C454.93 457.272 546.188 435.095 583.157 429.028C570.585 464.865 529.332 552.586 457.185 608.968C416.476 633.459 383.925 650.123 358.976 657.3C333.943 664.501 317.545 661.912 307.818 649.452C298.054 636.943 299.021 620.031 311.693 597.275C324.335 574.573 348.236 546.85 382.712 513.601Z" fill="#76B278" stroke="#404E35" stroke-width="5"/>
<path d="M267.31 578.024C190.194 528.611 138.97 449.897 120.971 417.041C158.949 416.998 255.392 426.779 332.532 476.108C369.153 506.373 395.681 531.543 410.736 552.693C425.841 573.914 428.844 590.241 420.322 603.554C411.766 616.918 395.492 621.622 369.819 617.227C344.207 612.841 310.12 599.502 267.31 578.024Z" fill="#76B278" stroke="#404E35" stroke-width="5"/>
<path d="M307.292 484.901C326.118 395.269 381.527 319.442 405.856 290.953C419.375 326.443 444.461 420.079 425.723 509.705C410.425 554.683 396.31 588.418 381.88 609.999C367.402 631.652 353.204 640.255 337.733 637.012C322.202 633.757 312.028 620.212 307.025 594.65C302.035 569.15 302.407 532.548 307.292 484.901Z" fill="#76B278" stroke="#404E35" stroke-width="5"/>
<path fill-rule="evenodd" clip-rule="evenodd" d="M370.159 823.186C469.847 823.186 550.659 769.066 550.659 683.186C555.346 648.949 543.587 598.016 520.934 549.686H217.394C195.082 598.198 184.141 649.256 189.659 683.186C189.659 769.066 270.472 823.186 370.159 823.186Z" fill="#FBAF6C"/>
<path d="M406.249 291.958C406.376 291.139 405.815 290.373 404.996 290.246C404.177 290.12 403.411 290.681 403.284 291.5L406.249 291.958ZM394.659 352.685L393.202 352.33L394.659 352.685ZM380.659 405.185L382.144 405.395L380.659 405.185ZM376.45 425.695L377.933 425.922L376.45 425.695ZM366.731 503.496L368.166 503.933L366.731 503.496ZM362.159 519.185L363.622 519.516L362.159 519.185ZM359.302 538.588L357.837 538.262L359.302 538.588ZM357.659 543.185L359.149 543.361L357.659 543.185ZM355.159 548.185V549.685H358.159V548.185H355.159ZM403.284 291.5C398.863 320.131 400.013 324.427 393.202 352.33L396.116 353.041C402.965 324.983 401.877 320.273 406.249 291.958L403.284 291.5ZM393.202 352.33C391.982 357.326 388.868 367.789 385.846 378.398C382.849 388.922 379.927 399.647 379.174 404.975L382.144 405.395C382.862 400.32 385.71 389.829 388.732 379.22C391.728 368.697 394.879 358.111 396.116 353.041L393.202 352.33ZM379.174 404.975C378.718 408.203 377.933 411.621 377.121 415.11C376.315 418.573 375.481 422.11 374.968 425.469L377.933 425.922C378.425 422.701 379.229 419.286 380.043 415.791C380.85 412.322 381.667 408.775 382.144 405.395L379.174 404.975ZM374.968 425.469C373.861 432.71 372.147 439.972 372.147 447.657H375.147C375.147 440.276 376.779 433.477 377.933 425.922L374.968 425.469ZM372.147 447.657C372.147 467.175 370.959 484.484 365.296 503.058L368.166 503.933C373.954 484.948 375.147 467.299 375.147 447.657H372.147ZM365.296 503.058C363.817 507.912 361.873 513.641 360.696 518.855L363.622 519.516C364.767 514.446 366.645 508.922 368.166 503.933L365.296 503.058ZM360.696 518.855C360.1 521.494 359.447 523.401 358.855 525.668C358.28 527.868 357.848 530.14 357.848 533.027H360.848C360.848 530.473 361.225 528.466 361.758 526.426C362.273 524.454 363.025 522.161 363.622 519.516L360.696 518.855ZM357.848 533.027C357.848 533.902 357.937 535.02 357.968 535.864C358.003 536.803 357.983 537.607 357.837 538.262L360.766 538.913C360.999 537.865 361.002 536.742 360.966 535.753C360.926 534.67 360.848 533.859 360.848 533.027H357.848ZM357.837 538.262C357.667 539.029 357.356 539.74 357.009 540.514C356.702 541.201 356.275 542.116 356.169 543.01L359.149 543.361C359.189 543.023 359.374 542.575 359.748 541.739C360.082 540.991 360.52 540.019 360.766 538.913L357.837 538.262ZM356.169 543.01C356.029 544.205 355.806 544.986 355.601 545.697C355.396 546.408 355.159 547.193 355.159 548.185H358.159C358.159 547.677 358.267 547.282 358.484 546.527C358.702 545.772 358.979 544.803 359.149 543.361L356.169 543.01Z" fill="#404E35"/>
<path d="M582.935 431.92C583.589 431.412 583.708 430.47 583.201 429.815C582.693 429.161 581.751 429.042 581.096 429.549L582.935 431.92ZM544.959 463.611L545.97 464.719L544.959 463.611ZM520.049 486.307L519.257 485.034L519.257 485.034L520.049 486.307ZM508.885 493.93L509.914 495.022L508.885 493.93ZM494.082 505.34L493.235 504.102L494.082 505.34ZM480.853 512.446L481.357 513.859L480.853 512.446ZM454.345 525.258L453.77 523.872L453.77 523.872L454.345 525.258ZM444.19 530.717L443.184 529.603L444.19 530.717ZM439.714 533.446L440.428 534.766L439.714 533.446ZM430.887 538.733L431.563 540.072L430.887 538.733ZM413.685 546.262L412.262 546.737L413.21 549.583L414.634 549.108L413.685 546.262ZM581.096 429.549C567.954 439.739 556.111 451.404 543.948 462.503L545.97 464.719C558.247 453.517 569.919 442.012 582.935 431.92L581.096 429.549ZM543.948 462.503C539.719 466.362 535.855 470.601 531.975 474.485C528.052 478.41 524.02 482.073 519.257 485.034L520.841 487.581C525.895 484.44 530.118 480.587 534.097 476.605C538.117 472.581 541.8 468.524 545.97 464.719L543.948 462.503ZM519.257 485.034C515.513 487.361 511.338 489.56 507.857 492.838L509.914 495.022C513.107 492.016 516.849 490.063 520.841 487.581L519.257 485.034ZM507.857 492.838C503.385 497.05 498.4 500.569 493.235 504.102L494.929 506.578C500.096 503.043 505.255 499.41 509.914 495.022L507.857 492.838ZM493.235 504.102C489.042 506.971 485.007 509.374 480.35 511.033L481.357 513.859C486.367 512.074 490.647 509.508 494.929 506.578L493.235 504.102ZM480.35 511.033C478.095 511.837 475.986 512.92 473.972 514.03C471.922 515.159 470.028 516.281 468.035 517.277L469.377 519.96C471.438 518.929 473.478 517.727 475.419 516.658C477.396 515.569 479.334 514.58 481.357 513.859L480.35 511.033ZM468.035 517.277C463.337 519.626 458.596 521.867 453.77 523.872L454.921 526.643C459.833 524.602 464.642 522.327 469.377 519.96L468.035 517.277ZM453.77 523.872C450.373 525.284 446.26 526.825 443.184 529.603L445.195 531.83C447.798 529.479 451.324 528.137 454.921 526.643L453.77 523.872ZM443.184 529.603C442.018 530.657 440.732 531.191 439.001 532.127L440.428 534.766C441.852 533.996 443.676 533.202 445.195 531.83L443.184 529.603ZM439.001 532.127C437.43 532.976 435.948 533.939 434.525 534.849C433.084 535.771 431.691 536.646 430.21 537.394L431.563 540.072C433.194 539.248 434.703 538.297 436.142 537.377C437.599 536.445 438.975 535.551 440.428 534.766L439.001 532.127ZM430.21 537.394C427.56 538.733 424.079 540.749 420.953 542.517C417.735 544.336 415.012 545.82 413.685 546.262L414.634 549.108C416.306 548.551 419.338 546.876 422.429 545.128C425.612 543.329 428.995 541.369 431.563 540.072L430.21 537.394Z" fill="#404E35"/>
<path d="M124.659 419.685L170.659 450.185L210.159 482.185L232.159 497.685L259.159 507.685L301.659 537.685" stroke="#404E35" stroke-width="3" stroke-linecap="round"/>
<path d="M157.989 312.556C161.982 318.945 167.367 325.702 173.481 330.163C178.842 334.074 184.925 338.296 190.866 341.228C200.652 346.059 211.113 349.425 220.792 354.507C226.16 357.325 231.169 360.461 236.775 362.892C241.694 365.024 245.645 367.426 250.201 370.195C256.173 373.824 262.367 376.878 268.594 380.031C272.545 382.031 275.88 383.793 279.315 386.424C282.161 388.604 284.66 391.133 287.553 393.26C291.698 396.308 295.743 399.811 299.085 403.735C301.435 406.494 303.877 409.165 306.143 411.997C307.267 413.402 309.294 415.007 310.052 416.669C312.589 422.227 317.011 427.823 321.757 431.62" stroke="#404E35" stroke-width="3" stroke-linecap="round"/>
<path d="M552.36 349.736C543.444 358.049 534.473 366.25 525.238 374.203C518.024 380.415 511.507 387.316 504.435 393.653C498.347 399.108 493.254 405.351 487.492 411.112C480.406 418.198 471.661 423.54 463.64 429.456C454.736 436.024 445.439 442.73 435.313 447.333C433.614 448.105 432.659 448.266 432.659 450.185" stroke="#404E35" stroke-width="3" stroke-linecap="round"/>
<path d="M378.956 194.214C379.192 199.464 379.378 204.715 379.291 209.972C379.23 213.644 378.224 217.066 377.93 220.701C377.174 230.057 376.825 239.541 376.825 248.925C376.825 261.534 376.825 274.144 376.825 286.753C376.825 292.879 376.078 299.765 377.358 305.825C377.912 308.446 378.505 311.813 379.863 314.129C380.425 315.088 381.659 320.58 381.659 321.685" stroke="#404E35" stroke-width="3" stroke-linecap="round"/>
<path d="M528.771 237.17C525.891 242.638 522.655 247.87 519.698 253.284C516.523 259.096 513.818 265.156 511.02 271.153C506.432 280.983 498.226 288.861 491.415 297.167C488.23 301.052 485.318 305.139 482.205 309.08C480.555 311.169 479.175 313.883 477.097 315.588C474.615 317.624 471.488 319.764 470.016 322.708C467.977 326.788 462.82 329.043 459.859 332.333C458.558 333.779 456.855 334.196 455.402 335.311C455.084 335.555 452.386 337.638 452.798 337.638" stroke="#404E35" stroke-width="3" stroke-linecap="round"/>
<path d="M227.366 222.615C230.59 226.859 233.223 231.456 236.399 235.71C240.025 240.568 243.969 245.18 247.601 250.029C250.478 253.87 252.196 258.368 255.214 262.1C258.77 266.495 262.45 270.784 265.963 275.215C271.029 281.606 276.766 288.058 280.46 295.392C283.265 300.963 287.121 305.79 290.006 311.328C292.133 315.413 295.786 318.313 298.072 322.314C300.077 325.821 302.726 328.605 305.508 331.504C307.624 333.71 309.205 336.266 311.425 338.388C314.054 340.901 316.253 343.459 318.525 346.277C319.26 347.189 321.071 348.543 321.404 349.709C321.683 350.682 322.61 351.517 323.574 351.839" stroke="#404E35" stroke-width="3" stroke-linecap="round"/>
<path d="M205.659 579.686C337.664 577.874 478.828 578.931 533.159 579.686" stroke="#9D4E08"/>
<path d="M683 251.5C683 260.047 680.908 267.737 677.579 273.257C674.238 278.796 669.76 282 665 282C660.24 282 655.762 278.796 652.421 273.257C649.092 267.737 647 260.047 647 251.5C647 242.953 649.092 235.263 652.421 229.743C655.762 224.204 660.24 221 665 221C669.76 221 674.238 224.204 677.579 229.743C680.908 235.263 683 242.953 683 251.5Z" stroke="#CDA64A" stroke-width="2"/>
<path d="M651.748 470.148C651.748 467.796 652.3 465.636 653.404 463.668C654.508 461.7 656.032 460.14 657.976 458.988C659.944 457.836 662.164 457.26 664.636 457.26C667.084 457.26 669.28 457.836 671.224 458.988C673.192 460.14 674.728 461.7 675.832 463.668C676.936 465.636 677.488 467.796 677.488 470.148C677.488 472.524 676.936 474.684 675.832 476.628C674.728 478.596 673.192 480.144 671.224 481.272C669.28 482.424 667.084 483 664.636 483C662.164 483 659.944 482.424 657.976 481.272C656.032 480.144 654.508 478.596 653.404 476.628C652.3 474.66 651.748 472.5 651.748 470.148ZM656.248 470.148C656.248 471.66 656.584 472.992 657.256 474.144C657.952 475.296 658.936 476.196 660.208 476.844C661.48 477.492 662.956 477.816 664.636 477.816C666.316 477.816 667.78 477.492 669.028 476.844C670.3 476.196 671.272 475.296 671.944 474.144C672.616 472.992 672.952 471.66 672.952 470.148C672.952 468.636 672.616 467.292 671.944 466.116C671.272 464.964 670.3 464.064 669.028 463.416C667.78 462.768 666.316 462.444 664.636 462.444C662.956 462.444 661.48 462.768 660.208 463.416C658.936 464.064 657.952 464.964 657.256 466.116C656.584 467.292 656.248 468.636 656.248 470.148Z" fill="#EFCA76"/>
<path d="M677.128 516.172H652V511.132H662.692V500.368H652V495.328H677.128V500.368H666.796V511.132H677.128V516.172ZM664.888 563.654C664.624 565.07 663.916 566.234 662.764 567.146C661.612 568.058 660.292 568.514 658.804 568.514C657.46 568.514 656.272 568.178 655.24 567.506C654.232 566.858 653.44 565.91 652.864 564.662C652.288 563.414 652 561.938 652 560.234V549.398H677.128V559.766C677.128 561.47 676.852 562.934 676.3 564.158C675.748 565.406 674.98 566.342 673.996 566.966C673.012 567.614 671.896 567.938 670.648 567.938C669.184 567.938 667.96 567.542 666.976 566.75C665.992 565.982 665.296 564.95 664.888 563.654ZM666.76 554.438V559.046C666.76 560.246 667.024 561.17 667.552 561.818C668.104 562.466 668.884 562.79 669.892 562.79C670.9 562.79 671.68 562.466 672.232 561.818C672.784 561.17 673.06 560.246 673.06 559.046V554.438H666.76ZM656.104 559.514C656.104 560.738 656.392 561.686 656.968 562.358C657.544 563.054 658.36 563.402 659.416 563.402C660.496 563.402 661.336 563.042 661.936 562.322C662.56 561.602 662.872 560.63 662.872 559.406V554.438H656.104V559.514ZM664.888 586.787C664.624 588.203 663.916 589.367 662.764 590.279C661.612 591.191 660.292 591.647 658.804 591.647C657.46 591.647 656.272 591.311 655.24 590.639C654.232 589.991 653.44 589.043 652.864 587.795C652.288 586.547 652 585.071 652 583.367V572.531H677.128V582.899C677.128 584.603 676.852 586.067 676.3 587.291C675.748 588.539 674.98 589.475 673.996 590.099C673.012 590.747 671.896 591.071 670.648 591.071C669.184 591.071 667.96 590.675 666.976 589.883C665.992 589.115 665.296 588.083 664.888 586.787ZM666.76 577.571V582.179C666.76 583.379 667.024 584.303 667.552 584.951C668.104 585.599 668.884 585.923 669.892 585.923C670.9 585.923 671.68 585.599 672.232 584.951C672.784 584.303 673.06 583.379 673.06 582.179V577.571H666.76ZM656.104 582.647C656.104 583.871 656.392 584.819 656.968 585.491C657.544 586.187 658.36 586.535 659.416 586.535C660.496 586.535 661.336 586.175 661.936 585.455C662.56 584.735 662.872 583.763 662.872 582.539V577.571H656.104V582.647ZM677.128 600.704H652V595.664H677.128V600.704ZM677.128 622.783H673.06V616.087H652V611.047H673.06V604.351H677.128V622.783Z" fill="white"/>
<path d="M651.748 532.796C651.748 530.444 652.3 528.284 653.404 526.316C654.508 524.348 656.032 522.788 657.976 521.636C659.944 520.484 662.164 519.908 664.636 519.908C667.084 519.908 669.28 520.484 671.224 521.636C673.192 522.788 674.728 524.348 675.832 526.316C676.936 528.284 677.488 530.444 677.488 532.796C677.488 535.172 676.936 537.332 675.832 539.276C674.728 541.244 673.192 542.792 671.224 543.92C669.28 545.072 667.084 545.648 664.636 545.648C662.164 545.648 659.944 545.072 657.976 543.92C656.032 542.792 654.508 541.244 653.404 539.276C652.3 537.308 651.748 535.148 651.748 532.796ZM656.248 532.796C656.248 534.308 656.584 535.64 657.256 536.792C657.952 537.944 658.936 538.844 660.208 539.492C661.48 540.14 662.956 540.464 664.636 540.464C666.316 540.464 667.78 540.14 669.028 539.492C670.3 538.844 671.272 537.944 671.944 536.792C672.616 535.64 672.952 534.308 672.952 532.796C672.952 531.284 672.616 529.94 671.944 528.764C671.272 527.612 670.3 526.712 669.028 526.064C667.78 525.416 666.316 525.092 664.636 525.092C662.956 525.092 661.48 525.416 660.208 526.064C658.936 526.712 657.952 527.612 657.256 528.764C656.584 529.94 656.248 531.284 656.248 532.796Z" fill="#EFCA76"/>
<path fill-rule="evenodd" clip-rule="evenodd" d="M888.247 727.848C872.181 723.798 855.874 733.539 851.823 749.604C855.874 733.539 846.133 717.231 830.067 713.181C845.152 716.984 860.448 708.629 865.614 694.298L865.901 694.37C863.655 709.438 873.163 724.046 888.247 727.848ZM851.234 752.55L850.946 752.477C851.282 751.544 851.576 750.586 851.823 749.604C851.576 750.586 851.38 751.569 851.234 752.55Z" fill="#D81E1E"/>
<path d="M935.583 345.028C936.446 341.616 937.87 338.79 939.855 336.552C941.847 334.284 944.261 332.765 947.096 331.996C949.908 331.189 952.942 331.196 956.2 332.02C959.457 332.843 962.131 334.278 964.221 336.325C966.288 338.333 967.66 340.808 968.335 343.751C969.018 346.664 968.928 349.826 968.066 353.239L965.196 364.594L932.713 356.383L935.583 345.028ZM962.469 352.072C963.332 348.659 963.068 345.787 961.677 343.455C960.286 341.123 957.899 339.529 954.518 338.675C951.136 337.82 948.264 338.084 945.901 339.467C943.507 340.842 941.878 343.236 941.016 346.649L939.851 351.256L961.305 356.679L962.469 352.072ZM948.05 317.84L956.194 319.899L958.958 308.963L964.124 310.268L961.36 321.204L969.969 323.38L973.086 311.048L978.391 312.389L973.627 331.236L941.098 323.014L945.862 304.167L951.167 305.508L948.05 317.84ZM963.444 277.112C965.182 277.551 966.705 278.382 968.013 279.603C969.329 280.794 970.229 282.392 970.713 284.395C971.205 286.368 971.113 288.688 970.439 291.356L969.063 296.801L981.534 299.953L979.888 306.469L947.405 298.258L950.428 286.298C951.064 283.785 952.039 281.754 953.355 280.206C954.67 278.657 956.198 277.64 957.938 277.156C959.685 276.64 961.521 276.626 963.444 277.112ZM965.11 290.306C965.565 288.507 965.499 287.071 964.911 285.998C964.293 284.918 963.24 284.189 961.751 283.813C958.586 283.013 956.557 284.382 955.663 287.918L954.357 293.084L963.804 295.472L965.11 290.306ZM991.181 263.16C990.413 266.201 988.993 268.813 986.923 270.996C984.853 273.179 982.373 274.698 979.484 275.552C976.563 276.398 973.505 276.417 970.31 275.609C967.146 274.809 964.495 273.347 962.358 271.223C960.191 269.091 958.715 266.572 957.931 263.668C957.147 260.763 957.139 257.79 957.908 254.75C958.684 251.679 960.103 249.067 962.166 246.915C964.236 244.731 966.727 243.232 969.64 242.417C972.529 241.563 975.556 241.536 978.72 242.336C981.916 243.144 984.597 244.614 986.765 246.746C988.909 248.839 990.374 251.338 991.158 254.243C991.942 257.148 991.95 260.12 991.181 263.16ZM985.364 261.69C985.858 259.736 985.859 257.904 985.367 256.195C984.843 254.479 983.866 252.994 982.433 251.74C981 250.487 979.198 249.586 977.027 249.037C974.855 248.488 972.857 248.429 971.032 248.858C969.176 249.281 967.625 250.126 966.38 251.396C965.135 252.666 964.265 254.278 963.771 256.232C963.277 258.187 963.272 260.034 963.757 261.774C964.249 263.482 965.211 264.963 966.644 266.217C968.046 267.462 969.832 268.359 972.004 268.908C974.176 269.457 976.189 269.521 978.045 269.098C979.901 268.676 981.468 267.835 982.744 266.573C983.997 265.272 984.87 263.645 985.364 261.69ZM965.444 226.892L997.927 235.102L996.28 241.618L963.798 233.407L965.444 226.892ZM1002.71 217.533C1002.14 219.797 1001.24 221.747 999.998 223.381C998.768 224.985 997.29 226.13 995.565 226.816C993.841 227.502 991.982 227.61 989.988 227.139L991.753 220.158C993.11 220.403 994.283 220.204 995.27 219.562C996.265 218.89 996.951 217.809 997.327 216.319C997.712 214.799 997.657 213.515 997.163 212.466C996.638 211.409 995.786 210.731 994.607 210.433C993.645 210.19 992.78 210.285 992.01 210.718C991.241 211.15 990.571 211.773 990.003 212.587C989.411 213.361 988.702 214.469 987.875 215.911C986.722 217.864 985.681 219.432 984.755 220.618C983.805 221.764 982.603 222.665 981.15 223.321C979.674 223.938 977.912 223.987 975.865 223.47C973.941 222.984 972.387 222.079 971.203 220.757C970.019 219.434 969.275 217.81 968.969 215.885C968.633 213.951 968.747 211.868 969.311 209.634C970.158 206.283 971.667 203.777 973.836 202.114C975.983 200.412 978.542 199.821 981.513 200.341L979.701 207.507C978.569 207.287 977.532 207.537 976.591 208.256C975.627 208.936 974.961 210.006 974.592 211.464C974.271 212.736 974.338 213.842 974.793 214.782C975.256 215.692 976.108 216.303 977.349 216.617C978.218 216.836 979.018 216.741 979.748 216.332C980.456 215.884 981.101 215.288 981.685 214.544C982.246 213.762 982.955 212.654 983.813 211.22C984.967 209.267 986.022 207.702 986.98 206.525C987.938 205.348 989.159 204.435 990.643 203.787C992.127 203.139 993.877 203.07 995.894 203.58C997.631 204.019 999.131 204.876 1000.39 206.153C1001.65 207.429 1002.52 209.049 1002.98 211.014C1003.41 212.971 1003.32 215.144 1002.71 217.533Z" fill="white"/>
<path d="M41.872 530.944L67 540.16V546.28L41.872 555.496V550.096L61.852 543.184L41.872 536.308V530.944ZM67.324 519.066C67.324 520.986 66.904 522.714 66.064 524.25C65.2 525.786 63.988 526.998 62.428 527.886C60.868 528.75 59.068 529.182 57.028 529.182C54.988 529.182 53.188 528.738 51.628 527.85C50.068 526.938 48.868 525.702 48.028 524.142C47.164 522.582 46.732 520.842 46.732 518.922C46.732 517.002 47.164 515.262 48.028 513.702C48.868 512.142 50.068 510.918 51.628 510.03C53.188 509.118 54.988 508.662 57.028 508.662C59.068 508.662 60.868 509.13 62.428 510.066C63.988 510.978 65.2 512.226 66.064 513.81C66.904 515.37 67.324 517.122 67.324 519.066ZM62.932 519.066C62.932 518.154 62.716 517.302 62.284 516.51C61.828 515.694 61.156 515.046 60.268 514.566C59.38 514.086 58.3 513.846 57.028 513.846C55.132 513.846 53.68 514.35 52.672 515.358C51.64 516.342 51.124 517.554 51.124 518.994C51.124 520.434 51.64 521.646 52.672 522.63C53.68 523.59 55.132 524.07 57.028 524.07C58.924 524.07 60.388 523.602 61.42 522.666C62.428 521.706 62.932 520.506 62.932 519.066ZM47.056 486.137H67V491.213H64.48C65.344 491.861 66.028 492.713 66.532 493.769C67.012 494.801 67.252 495.929 67.252 497.153C67.252 498.713 66.928 500.093 66.28 501.293C65.608 502.493 64.636 503.441 63.364 504.137C62.068 504.809 60.532 505.145 58.756 505.145H47.056L47.056 500.105H58.036C59.62 500.105 60.844 499.709 61.708 498.917C62.548 498.125 62.968 497.045 62.968 495.677C62.968 494.285 62.548 493.193 61.708 492.401C60.844 491.609 59.62 491.213 58.036 491.213H47.056V486.137ZM51.196 466.718H60.844C61.516 466.718 62.008 466.562 62.32 466.25C62.608 465.914 62.752 465.362 62.752 464.594V462.254H67V465.422C67 469.67 64.936 471.794 60.808 471.794H51.196V474.17H47.056V471.794H42.124V466.718H47.056V462.254H51.196V466.718ZM56.596 440.089C57.316 440.089 57.964 440.137 58.54 440.233L58.54 454.813C59.98 454.693 61.108 454.189 61.924 453.301C62.74 452.413 63.148 451.321 63.148 450.025C63.148 448.153 62.344 446.821 60.736 446.029V440.593C62.656 441.169 64.24 442.273 65.488 443.905C66.712 445.537 67.324 447.541 67.324 449.917C67.324 451.837 66.904 453.565 66.064 455.101C65.2 456.613 63.988 457.801 62.428 458.665C60.868 459.505 59.068 459.925 57.028 459.925C54.964 459.925 53.152 459.505 51.592 458.665C50.032 457.825 48.832 456.649 47.992 455.137C47.152 453.625 46.732 451.885 46.732 449.917C46.732 448.021 47.14 446.329 47.956 444.841C48.772 443.329 49.936 442.165 51.448 441.349C52.936 440.509 54.652 440.089 56.596 440.089ZM55.156 445.309C53.86 445.333 52.828 445.801 52.06 446.713C51.268 447.625 50.872 448.741 50.872 450.061C50.872 451.309 51.256 452.365 52.024 453.229C52.768 454.069 53.812 454.585 55.156 454.777V445.309ZM50.152 422.792C49.096 422.144 48.268 421.304 47.668 420.272C47.068 419.216 46.768 418.016 46.768 416.672H52.06V418.004C52.06 419.588 52.432 420.788 53.176 421.604C53.92 422.396 55.216 422.792 57.064 422.792H67V427.832H47.056V422.792H50.152ZM56.596 394.738C57.316 394.738 57.964 394.786 58.54 394.882V409.462C59.98 409.342 61.108 408.838 61.924 407.95C62.74 407.062 63.148 405.97 63.148 404.674C63.148 402.802 62.344 401.47 60.736 400.678V395.242C62.656 395.818 64.24 396.922 65.488 398.554C66.712 400.186 67.324 402.19 67.324 404.566C67.324 406.486 66.904 408.214 66.064 409.75C65.2 411.262 63.988 412.45 62.428 413.314C60.868 414.154 59.068 414.574 57.028 414.574C54.964 414.574 53.152 414.154 51.592 413.314C50.032 412.474 48.832 411.298 47.992 409.786C47.152 408.274 46.732 406.534 46.732 404.566C46.732 402.67 47.14 400.978 47.956 399.49C48.772 397.978 49.936 396.814 51.448 395.998C52.936 395.158 54.652 394.738 56.596 394.738ZM55.156 399.958C53.86 399.982 52.828 400.45 52.06 401.362C51.268 402.274 50.872 403.39 50.872 404.71C50.872 405.958 51.256 407.014 52.024 407.878C52.768 408.718 53.812 409.234 55.156 409.426V399.958ZM57.028 392.355C54.964 392.355 53.164 391.935 51.628 391.095C50.068 390.255 48.868 389.091 48.028 387.603C47.164 386.115 46.732 384.411 46.732 382.491C46.732 380.019 47.356 377.979 48.604 376.371C49.828 374.739 51.556 373.647 53.788 373.095V378.531C52.924 378.819 52.252 379.311 51.772 380.007C51.268 380.679 51.016 381.519 51.016 382.527C51.016 383.967 51.544 385.107 52.6 385.947C53.632 386.787 55.108 387.207 57.028 387.207C58.924 387.207 60.4 386.787 61.456 385.947C62.488 385.107 63.004 383.967 63.004 382.527C63.004 380.487 62.092 379.155 60.268 378.531V373.095C62.428 373.647 64.144 374.739 65.416 376.371C66.688 378.003 67.324 380.043 67.324 382.491C67.324 384.411 66.904 386.115 66.064 387.603C65.2 389.091 64 390.255 62.464 391.095C60.904 391.935 59.092 392.355 57.028 392.355ZM56.596 350.863C57.316 350.863 57.964 350.911 58.54 351.007L58.54 365.587C59.98 365.467 61.108 364.963 61.924 364.075C62.74 363.187 63.148 362.095 63.148 360.799C63.148 358.927 62.344 357.595 60.736 356.803V351.367C62.656 351.943 64.24 353.047 65.488 354.679C66.712 356.311 67.324 358.315 67.324 360.691C67.324 362.611 66.904 364.339 66.064 365.875C65.2 367.387 63.988 368.575 62.428 369.439C60.868 370.279 59.068 370.699 57.028 370.699C54.964 370.699 53.152 370.279 51.592 369.439C50.032 368.599 48.832 367.423 47.992 365.911C47.152 364.399 46.732 362.659 46.732 360.691C46.732 358.795 47.14 357.103 47.956 355.615C48.772 354.103 49.936 352.939 51.448 352.123C52.936 351.283 54.652 350.863 56.596 350.863ZM55.156 356.083C53.86 356.107 52.828 356.575 52.06 357.487C51.268 358.399 50.872 359.515 50.872 360.835C50.872 362.083 51.256 363.139 52.024 364.003C52.768 364.843 53.812 365.359 55.156 365.551L55.156 356.083ZM44.68 344.628C44.68 345.516 44.404 346.26 43.852 346.86C43.276 347.436 42.568 347.724 41.728 347.724C40.888 347.724 40.192 347.436 39.64 346.86C39.064 346.26 38.776 345.516 38.776 344.628C38.776 343.74 39.064 343.008 39.64 342.432C40.192 341.832 40.888 341.532 41.728 341.532C42.568 341.532 43.276 341.832 43.852 342.432C44.404 343.008 44.68 343.74 44.68 344.628ZM47.056 342.144H67V347.184H47.056V342.144ZM51.196 331.296H60.844C61.516 331.296 62.008 331.14 62.32 330.828C62.608 330.492 62.752 329.94 62.752 329.172L62.752 326.832H67L67 330C67 334.248 64.936 336.372 60.808 336.372H51.196V338.748H47.056V336.372H42.124L42.124 331.296H47.056V326.832H51.196V331.296ZM56.956 324.503C54.94 324.503 53.152 324.107 51.592 323.315C50.032 322.499 48.832 321.407 47.992 320.039C47.152 318.647 46.732 317.099 46.732 315.395C46.732 313.907 47.032 312.611 47.632 311.507C48.232 310.379 48.988 309.479 49.9 308.807H47.056V303.731H67V308.807H64.084C65.02 309.455 65.8 310.355 66.424 311.507C67.024 312.635 67.324 313.943 67.324 315.431C67.324 317.111 66.892 318.647 66.028 320.039C65.164 321.407 63.952 322.499 62.392 323.315C60.808 324.107 58.996 324.503 56.956 324.503ZM57.028 308.807C55.804 308.807 54.76 309.047 53.896 309.527C53.008 310.007 52.336 310.655 51.88 311.471C51.4 312.287 51.16 313.163 51.16 314.099C51.16 315.035 51.388 315.899 51.844 316.691C52.3 317.483 52.972 318.131 53.86 318.635C54.724 319.115 55.756 319.355 56.956 319.355C58.156 319.355 59.212 319.115 60.124 318.635C61.012 318.131 61.696 317.483 62.176 316.691C62.656 315.875 62.896 315.011 62.896 314.099C62.896 313.163 62.668 312.287 62.212 311.471C61.732 310.655 61.06 310.007 60.196 309.527C59.308 309.047 58.252 308.807 57.028 308.807ZM50.152 293.769C49.096 293.121 48.268 292.281 47.668 291.249C47.068 290.193 46.768 288.993 46.768 287.649H52.06V288.981C52.06 290.565 52.432 291.765 53.176 292.581C53.92 293.373 55.216 293.769 57.064 293.769H67V298.809H47.056V293.769H50.152ZM47.056 256.848H67V261.924H64.48C65.344 262.572 66.028 263.424 66.532 264.48C67.012 265.512 67.252 266.64 67.252 267.864C67.252 269.424 66.928 270.804 66.28 272.004C65.608 273.204 64.636 274.152 63.364 274.848C62.068 275.52 60.532 275.856 58.756 275.856H47.056V270.816H58.036C59.62 270.816 60.844 270.42 61.708 269.628C62.548 268.836 62.968 267.756 62.968 266.388C62.968 264.996 62.548 263.904 61.708 263.112C60.844 262.32 59.62 261.924 58.036 261.924H47.056L47.056 256.848ZM46.768 227.107C46.768 224.659 47.524 222.691 49.036 221.203C50.524 219.691 52.612 218.935 55.3 218.935H67V223.975H55.984C54.424 223.975 53.236 224.371 52.42 225.163C51.58 225.955 51.16 227.035 51.16 228.403C51.16 229.771 51.58 230.863 52.42 231.679C53.236 232.471 54.424 232.867 55.984 232.867H67V237.907H55.984C54.424 237.907 53.236 238.303 52.42 239.095C51.58 239.887 51.16 240.967 51.16 242.335C51.16 243.727 51.58 244.831 52.42 245.647C53.236 246.439 54.424 246.835 55.984 246.835H67V251.875H47.056V246.835H49.468C48.628 246.187 47.968 245.359 47.488 244.351C47.008 243.319 46.768 242.191 46.768 240.967C46.768 239.407 47.104 238.015 47.776 236.791C48.424 235.567 49.36 234.619 50.584 233.947C49.432 233.299 48.508 232.363 47.812 231.139C47.116 229.891 46.768 228.547 46.768 227.107ZM46.732 197.763C46.732 196.275 47.032 194.967 47.632 193.839C48.208 192.711 48.964 191.823 49.9 191.175H47.056V186.099H67.144C68.992 186.099 70.636 186.471 72.076 187.215C73.54 187.959 74.692 189.075 75.532 190.563C76.396 192.051 76.828 193.851 76.828 195.963C76.828 198.795 76.168 201.123 74.848 202.947C73.528 204.747 71.728 205.767 69.448 206.007V201.003C70.36 200.739 71.08 200.175 71.608 199.311C72.16 198.423 72.436 197.355 72.436 196.107C72.436 194.643 71.992 193.455 71.104 192.543C70.24 191.631 68.92 191.175 67.144 191.175H64.048C64.984 191.823 65.764 192.723 66.388 193.875C67.012 195.003 67.324 196.299 67.324 197.763C67.324 199.443 66.892 200.979 66.028 202.371C65.164 203.763 63.952 204.867 62.392 205.683C60.808 206.475 58.996 206.871 56.956 206.871C54.94 206.871 53.152 206.475 51.592 205.683C50.032 204.867 48.832 203.775 47.992 202.407C47.152 201.015 46.732 199.467 46.732 197.763ZM57.028 191.175C55.804 191.175 54.76 191.415 53.896 191.895C53.008 192.375 52.336 193.023 51.88 193.839C51.4 194.655 51.16 195.531 51.16 196.467C51.16 197.403 51.388 198.267 51.844 199.059C52.3 199.851 52.972 200.499 53.86 201.003C54.724 201.483 55.756 201.723 56.956 201.723C58.156 201.723 59.212 201.483 60.124 201.003C61.012 200.499 61.696 199.851 62.176 199.059C62.656 198.243 62.896 197.379 62.896 196.467C62.896 195.531 62.668 194.655 62.212 193.839C61.732 193.023 61.06 192.375 60.196 191.895C59.308 191.415 58.252 191.175 57.028 191.175ZM56.956 182.472C54.94 182.472 53.152 182.076 51.592 181.284C50.032 180.468 48.832 179.376 47.992 178.008C47.152 176.616 46.732 175.068 46.732 173.364C46.732 171.876 47.032 170.58 47.632 169.476C48.232 168.348 48.988 167.448 49.9 166.776H47.056V161.7H67L67 166.776H64.084C65.02 167.424 65.8 168.324 66.424 169.476C67.024 170.604 67.324 171.912 67.324 173.4C67.324 175.08 66.892 176.616 66.028 178.008C65.164 179.376 63.952 180.468 62.392 181.284C60.808 182.076 58.996 182.472 56.956 182.472ZM57.028 166.776C55.804 166.776 54.76 167.016 53.896 167.496C53.008 167.976 52.336 168.624 51.88 169.44C51.4 170.256 51.16 171.132 51.16 172.068C51.16 173.004 51.388 173.868 51.844 174.66C52.3 175.452 52.972 176.1 53.86 176.604C54.724 177.084 55.756 177.324 56.956 177.324C58.156 177.324 59.212 177.084 60.124 176.604C61.012 176.1 61.696 175.452 62.176 174.66C62.656 173.844 62.896 172.98 62.896 172.068C62.896 171.132 62.668 170.256 62.212 169.44C61.732 168.624 61.06 167.976 60.196 167.496C59.308 167.016 58.252 166.776 57.028 166.776ZM51.196 150.91H60.844C61.516 150.91 62.008 150.754 62.32 150.442C62.608 150.106 62.752 149.554 62.752 148.786V146.446H67V149.614C67 153.862 64.936 155.986 60.808 155.986H51.196V158.362H47.056V155.986H42.124V150.91H47.056V146.446H51.196V150.91ZM67.324 133.965C67.324 135.885 66.904 137.613 66.064 139.149C65.2 140.685 63.988 141.897 62.428 142.785C60.868 143.649 59.068 144.081 57.028 144.081C54.988 144.081 53.188 143.637 51.628 142.749C50.068 141.837 48.868 140.601 48.028 139.041C47.164 137.481 46.732 135.741 46.732 133.821C46.732 131.901 47.164 130.161 48.028 128.601C48.868 127.041 50.068 125.817 51.628 124.929C53.188 124.017 54.988 123.561 57.028 123.561C59.068 123.561 60.868 124.029 62.428 124.965C63.988 125.877 65.2 127.125 66.064 128.709C66.904 130.269 67.324 132.021 67.324 133.965ZM62.932 133.965C62.932 133.053 62.716 132.201 62.284 131.409C61.828 130.593 61.156 129.945 60.268 129.465C59.38 128.985 58.3 128.745 57.028 128.745C55.132 128.745 53.68 129.249 52.672 130.257C51.64 131.241 51.124 132.453 51.124 133.893C51.124 135.333 51.64 136.545 52.672 137.529C53.68 138.489 55.132 138.969 57.028 138.969C58.924 138.969 60.388 138.501 61.42 137.565C62.428 136.605 62.932 135.405 62.932 133.965Z" fill="white"/>
<rect x="32" y="667" width="45" height="118" rx="22.5" fill="white"/>
</svg>
