<svg width="174" height="60" viewBox="0 0 174 60" fill="none" xmlns="http://www.w3.org/2000/svg">
<path d="M8.36 39.56H17.56V44H2.76V16.08H8.36V39.56ZM23.9594 19.2C22.9727 19.2 22.146 18.8933 21.4794 18.28C20.8394 17.64 20.5194 16.8533 20.5194 15.92C20.5194 14.9867 20.8394 14.2133 21.4794 13.6C22.146 12.96 22.9727 12.64 23.9594 12.64C24.946 12.64 25.7594 12.96 26.3994 13.6C27.066 14.2133 27.3994 14.9867 27.3994 15.92C27.3994 16.8533 27.066 17.64 26.3994 18.28C25.7594 18.8933 24.946 19.2 23.9594 19.2ZM26.7194 21.84V44H21.1194V21.84H26.7194ZM85.5084 25.28C86.2284 24.1067 87.1618 23.1867 88.3084 22.52C89.4818 21.8533 90.8151 21.52 92.3084 21.52V27.4H90.8284C89.0684 27.4 87.7351 27.8133 86.8284 28.64C85.9484 29.4667 85.5084 30.9067 85.5084 32.96V44H79.9084V21.84H85.5084V25.28ZM94.6403 32.84C94.6403 30.6 95.0803 28.6133 95.9603 26.88C96.867 25.1467 98.0803 23.8133 99.6003 22.88C101.147 21.9467 102.867 21.48 104.76 21.48C106.414 21.48 107.854 21.8133 109.08 22.48C110.334 23.1467 111.334 23.9867 112.08 25V21.84H117.72V44H112.08V40.76C111.36 41.8 110.36 42.6667 109.08 43.36C107.827 44.0267 106.374 44.36 104.72 44.36C102.854 44.36 101.147 43.88 99.6003 42.92C98.0803 41.96 96.867 40.6133 95.9603 38.88C95.0803 37.12 94.6403 35.1067 94.6403 32.84ZM112.08 32.92C112.08 31.56 111.814 30.4 111.28 29.44C110.747 28.4533 110.027 27.7067 109.12 27.2C108.214 26.6667 107.24 26.4 106.2 26.4C105.16 26.4 104.2 26.6533 103.32 27.16C102.44 27.6667 101.72 28.4133 101.16 29.4C100.627 30.36 100.36 31.5067 100.36 32.84C100.36 34.1733 100.627 35.3467 101.16 36.36C101.72 37.3467 102.44 38.1067 103.32 38.64C104.227 39.1733 105.187 39.44 106.2 39.44C107.24 39.44 108.214 39.1867 109.12 38.68C110.027 38.1467 110.747 37.4 111.28 36.44C111.814 35.4533 112.08 34.28 112.08 32.92ZM111.32 16.08L102.12 20.28V16.28L111.32 11.52V16.08ZM128.79 25.28C129.51 24.1067 130.443 23.1867 131.59 22.52C132.763 21.8533 134.096 21.52 135.59 21.52V27.4H134.11C132.35 27.4 131.016 27.8133 130.11 28.64C129.23 29.4667 128.79 30.9067 128.79 32.96V44H123.19V21.84H128.79V25.28ZM142.202 19.2C141.215 19.2 140.388 18.8933 139.722 18.28C139.082 17.64 138.762 16.8533 138.762 15.92C138.762 14.9867 139.082 14.2133 139.722 13.6C140.388 12.96 141.215 12.64 142.202 12.64C143.188 12.64 144.002 12.96 144.642 13.6C145.308 14.2133 145.642 14.9867 145.642 15.92C145.642 16.8533 145.308 17.64 144.642 18.28C144.002 18.8933 143.188 19.2 142.202 19.2ZM144.962 21.84V44H139.362V21.84H144.962ZM160.334 44.36C158.201 44.36 156.281 43.8933 154.574 42.96C152.868 42 151.521 40.6533 150.534 38.92C149.574 37.1867 149.094 35.1867 149.094 32.92C149.094 30.6533 149.588 28.6533 150.574 26.92C151.588 25.1867 152.961 23.8533 154.694 22.92C156.428 21.96 158.361 21.48 160.494 21.48C162.628 21.48 164.561 21.96 166.294 22.92C168.028 23.8533 169.388 25.1867 170.374 26.92C171.388 28.6533 171.894 30.6533 171.894 32.92C171.894 35.1867 171.374 37.1867 170.334 38.92C169.321 40.6533 167.934 42 166.174 42.96C164.441 43.8933 162.494 44.36 160.334 44.36ZM160.334 39.48C161.348 39.48 162.294 39.24 163.174 38.76C164.081 38.2533 164.801 37.5067 165.334 36.52C165.868 35.5333 166.134 34.3333 166.134 32.92C166.134 30.8133 165.574 29.2 164.454 28.08C163.361 26.9333 162.014 26.36 160.414 26.36C158.814 26.36 157.468 26.9333 156.374 28.08C155.308 29.2 154.774 30.8133 154.774 32.92C154.774 35.0267 155.294 36.6533 156.334 37.8C157.401 38.92 158.734 39.48 160.334 39.48Z" fill="white"/>
<path d="M51.3099 44L54.0141 39.3125L57.3944 44L77 33.0625L76.3239 30.7188L74.9718 31.5L74.2958 29.1562L60.0986 40.875L72.9437 26.8125L71.5916 25.25L60.0986 38.5312L70.2394 22.125L67.5352 20.5625L56.0423 39.3125L66.1831 19L54.0141 38.5312L37.7887 19L51.3099 38.5312L36.4366 20.5625L34.4085 22.125L49.2817 38.5312L33.0563 25.25L32.3803 26.8125L49.9577 40.875L31.7042 29.1562L31.0282 31.5L29.6761 30.7188L29 32.2812L51.3099 44Z" stroke="white" stroke-linejoin="round"/>
</svg>
